<svg width="171" height="58" fill="none" xmlns="http://www.w3.org/2000/svg"><g filter="url(#filter0_d)"><path d="M25.188 4.406c1.229 1.167 1.843 2.438 1.843 3.813l-.125.656.25-.125c0 .083.042.125.125.125 0 1.875-.385 4.02-1.156 6.438 0 .5-.396 1.979-1.188 4.437 0 .625-.218 1.063-.656 1.313l1.563-6.407h-.25c0 .854-.875 3.646-2.625 8.375-.396 1.417-.792 2.125-1.188 2.125l.125.25v.125c0 .167-.177.698-.531 1.594 2.625 1.646 4.375 3.396 5.25 5.25 1.146 2.27 1.719 4.104 1.719 5.5-.417 2.354-1.375 4.281-2.875 5.781-3.188 3.209-7.615 5.657-13.282 7.344a2.15 2.15 0 01-1.03.25l.124.281-.25.125c-.687 0-1.614-.479-2.781-1.437-.792 1.041-1.27 1.562-1.438 1.562v-.531h-.25l.125.281v.25c-.166 0-.385.177-.656.532l-.406-.532.281-.531c-.187-.02-.364-.24-.531-.656l-.25.156c-.125 0-.26-.135-.406-.406.229-1.084 1.062-2.615 2.5-4.594 2.083-4.458 3.573-7.26 4.468-8.406 0-.5.438-1.24 1.313-2.219 1.625-3.875 2.719-6.281 3.281-7.219 1.563-3.396 3.354-7.729 5.375-13l1.188-3.031c.187 0 .573-1.354 1.156-4.063 0-1.25.396-2.385 1.188-3.406zm.937 8.407c-.188.645-.281 1.041-.281 1.187v.5h.125c0-.438.093-.958.281-1.563v-.124h-.125zm-2.25 9.718H24l-.5 1.563h-.406v-.407l.781-1.156zm-.781 2.094V25c0 .125-.136.26-.407.406l-.125-.25.532-.531zm-4.063 6.281l.125.657-.406.937c-.333 0-.5.302-.5.906h.125v.282c-.27 0-.49.52-.656 1.562-.584 1.313-1.063 1.969-1.438 1.969v.656c0 .438-.27.792-.812 1.063l.156.25c0 .416-.396.937-1.188 1.562-.687 1.792-1.302 2.844-1.843 3.156l-.906 2.375.25.125c2.104-.562 4.208-1.479 6.312-2.75 4.458-3.104 6.688-6.166 6.688-9.187 0-1.146-.615-2.063-1.844-2.75 0-.25-.698-.688-2.094-1.313l-.281.125h-.125c0-.187-.042-.281-.125-.281-.604 0-1.084.219-1.438.656zm-1.187.407v.25c.125 0 .26-.125.406-.375v-.125h-.156c-.167.02-.25.104-.25.25zm.781 3.406h.125c-.125.354-.25.531-.375.531L18.25 35l.375-.281zm-4.313 4.062v.157c.167-.105.292-.157.376-.157v-.375c-.126 0-.25.125-.376.375zm28.876-22.75h.25c.104 0 .395.417.874 1.25.167 0 .25.209.25.625v.375c0 1.75-1 3.417-3 5-.395.25-.937.375-1.624.375-.355 0-.646-.25-.876-.75v-.125l.126-.25c-.084 0-.126-.041-.126-.125.438-.166.771-.25 1-.25v-.125c-.77-.104-1.27-.187-1.5-.25.084-.75.209-1.125.376-1.125l-.126-.25c1.271-1.625 2.188-2.625 2.75-3 .167-.27.25-.479.25-.625h.376l-.126.625c.167.021.25.104.25.25l-.124.625c.083 0 .333-.291.75-.875v-1.125c.02-.166.104-.25.25-.25zm-5.876 10.25h.25c.25.438.376.73.376.875l.5-.5h.25v.125c-1 3.188-1.5 4.854-1.5 5-2.334 8.542-3.5 13.292-3.5 14.25-.084.354-.126 1.271-.126 2.75l.25.125h.25c.855 0 2.646-1.833 5.376-5.5.937-1.146 1.52-1.77 1.75-1.875l.124.25a32.925 32.925 0 00-2.25 3.25c-.145 0-.604.584-1.374 1.75v.125l.624-.375h.126c0 .313-.626 1.188-1.876 2.625h-.25v.75h-.25v.125c.25 0 .376.084.376.25a.989.989 0 01-.5.125v.25l.124.25-1.25 1 .126.25v.125c-.626.167-1 .25-1.126.25-.666-.708-1.624-1.291-2.874-1.75a4.083 4.083 0 01-1.25-2c0-.062.041-.312.125-.75 0-.333-.084-1.125-.25-2.375.333-2.896.958-5.354 1.875-7.375.166-.333.666-1.916 1.5-4.75.458 0 .874-.958 1.25-2.875.354-.354 1.145-1.52 2.374-3.5.167-.333.292-.5.376-.5l.25.125.124-.5zm.126 21l.25.125v-.375c-.167.021-.25.104-.25.25zM54.03 4.563h.094c0 .25.52.802 1.563 1.656 0 .354-.303 2.052-.907 5.093-.812 3.084-1.218 4.75-1.218 5v.094h.78c.147.042.22.125.22.25l.562-.125h.438l.437.344a.93.93 0 00.469-.125l.218.125c.209-.083.313-.156.313-.219.167 0 1.646.146 4.438.438.395-.084.614-.125.656-.125.854.083 1.343.156 1.468.218l.22-.093c.124.062.27.093.437.093.062 0 .094-.03.094-.093l1.343.218c.021-.145.094-.218.219-.218.896.041 1.344.146 1.344.312l.75-.093c.52.02.781.093.781.218.25-.146.48-.218.688-.218h.218l.313.218.562-.125c.292.063.438.136.438.219l.219-.094c.52.063.927.094 1.218.094l.219-.094c.458.104.688.219.688.344-.355.104-1.021.208-2 .313 0-.146-.073-.22-.22-.22h-.124l-.438.438h-.562v-.437l-.313.218h-.469c-.062 0-.093-.03-.093-.093l-.219.093c-.23-.145-.49-.25-.781-.312-.188.583-.48.875-.875.875v-.344c0-.146.104-.218.312-.218v-.438h-.312c0 .23-.073.344-.219.344-.083 0-.125-.042-.125-.125-.125 0-.385.187-.781.562 0-.25-.188-.396-.563-.437l-.219.093h-.53l-.344-.218c-.126 0-.344.073-.657.218l-.218-.093h-.126v.093c.23 0 .344.146.344.438-.375.208-.562.365-.562.469.083 0 .125.031.125.093l-.25.125c-.396 0-.802-.156-1.219-.468 0 .312-.073.468-.219.468h-.218c-.146 0-.22-.072-.22-.218v-.125l.344-.438v-.125c-.145 0-.218-.031-.218-.093 0-.23.177-.344.531-.344v-.219h-.094c-.354 0-.729.115-1.125.344l.125.218v.094h-.218l.218.344c-.291.375-.437.594-.437.656l-1-.312-.219.093c-.25 0-.438-.26-.563-.78l-.78.124c-.147 0-.407-.073-.782-.218l-.094.218c.146.063.25.094.313.094v.125c0 .104-.104.219-.313.344-.25-.167-.468-.25-.656-.25 0 .166-.083.25-.25.25h-.969l-.343-.25h-.876c-.166 0-.322-.032-.468-.094-.146.063-.25.094-.313.094v.687h.313v.219c-.667.104-1 .438-1 1h.25v.094l-.25.343c.083 0 .125.032.125.094-.396 0-.875 1.26-1.438 3.782l-2.218 6.093c-.188.75-.376 1.23-.563 1.438.083.146.125.26.125.343-.146.063-.625 1.47-1.438 4.22-1.562 4.166-2.343 6.676-2.343 7.53-.209.521-.313.855-.313 1h.219c.875-1.479 1.313-2.291 1.313-2.437.145.063.26.094.343.094.292-.25.438-.51.438-.782.146 0 .77-.77 1.875-2.312 1.333-1.688 2.114-2.542 2.343-2.563h.094l-.093-.218.656-.532v.22c-.5.874-.865 1.312-1.094 1.312l.094.218c-.146.292-.219.553-.219.782l.875-.657c.167.23.25.448.25.657-.167 0-.656.52-1.469 1.562-.208 0-.312.073-.312.219l.218.094c-.604.916-1.197 1.583-1.78 2v.125c.083.146.124.25.124.312-.312 0-.5.26-.562.782-.25.145-.469.218-.657.218v.688h-.343v-.125l.125-.219h-.125l-.125.219c.125.666.312 1 .562 1v.218c-.187 0-.375.073-.562.22h-.219c0-.147.115-.22.344-.22v-.343h-.125c-.25.083-.657.573-1.219 1.468V48l.344-.219v.125l-.219.313v.218c.354 0 .719-.25 1.094-.75.083 0 .198-.041.343-.124l-.093-.22c.166-.437.385-.656.656-.656l-.125-.25v-.093c.27 0 .792-.552 1.563-1.657 0-.208.333-.583 1-1.124 0-.209.072-.313.218-.313l.094.219c-.104.312-.354.604-.75.875l-1.219 1.781v.313h-.218l-.25-.094c0 .146-.032.218-.094.218l.093.22V47h-.093l-.219-.094-.125.219c.083.146.125.25.125.313-.146.02-.854.833-2.125 2.437-.063.125-.094.313-.094.563.063 0 .094.041.094.124.146-.083.26-.124.344-.124l-.094-.563c.063 0 .167.156.313.469.145-.084.26-.125.343-.125 0 .083.032.125.094.125l.125-.219c-.104-.02-.25-.208-.438-.563h.094a.961.961 0 00.438.094c0-.146.114-.218.343-.218v-.22h-.218v-.093c.02-.146.093-.219.218-.219.376.167.563.532.563 1.094-.167 0-.833.667-2 2h.219v.313a.77.77 0 00-.438.124c-.812 0-1.843-.593-3.093-1.78-.667-.522-1.073-.782-1.22-.782-.666-.813-1.114-1.292-1.343-1.438a.948.948 0 01.344-.093v-.125c-.604-.354-.907-.719-.907-1.094V46c0-.063.042-.094.126-.094 0-.083-.042-.125-.126-.125 0-.104.073-.51.22-1.218 0-.063-.032-.094-.094-.094.104-1.459.291-2.386.562-2.782l-.125-.218 1-3.313c0-.125.115-.24.344-.343l-.125-.22c.625-1.687 1-2.54 1.125-2.562l-.125-.218v-.22c.25-.437.614-1.614 1.093-3.53.521-1.23 1.115-2.938 1.782-5.125.354-.375.729-1.292 1.125-2.75l.875-2.125c0-.167-.188-.271-.563-.313 0 .104-.104.208-.312.313-.813 0-1.219-.22-1.219-.657l-.219-.093h-.125v.093h.219v.344c-1.292 0-4.02-1.042-8.188-3.125-1.562-.938-2.343-1.594-2.343-1.969 0-.125-.104-.312-.313-.562v-1l-.125-.656.125-.22c-.083-.52-.125-.926-.125-1.218v-.219c.271-.5.563-.802.875-.906.771 0 1.74.406 2.907 1.219 1.52.666 3.916 1.552 7.187 2.656l.219-.094c.812.167 1.52.386 2.125.656l.218-.124.75.468h.25c.438-.646.73-1.719.876-3.219 0-.395.187-.729.562-1 .146.25.219.47.219.657 0 .083-.073.531-.219 1.344.188-.167.552-1.5 1.094-4 .27-.188.49-.855.656-2l.25-.094c0 .062.031.093.094.093.291-.833.51-1.343.656-1.53l-.094-.25c0-.126.26-.345.782-.657.291-.292.697-.438 1.218-.438zM59 18.188c.146 0 .219.114.219.343.104 0 .333-.218.687-.656l-.562-.125c-.104 0-.219.146-.344.438zm15.844-.22h.781v.22h-.219l-.562-.094v-.125zm-10.969.22H64c.52.145.813.218.875.218H65l.781-.093.094.218-.094.219-.781-.125h-.438v.219c.646.062.97.177.97.343v.125l-1.094.094h-.22c-.103 0-.218-.104-.343-.312 0-.167.188-.25.563-.25 0-.292-.188-.438-.563-.438v-.218zm8.438 0h.218c.146.02.219.093.219.218v.438c0 .166-.073.25-.219.25-.104 0-.219-.115-.344-.344l.126-.563zm-9.97.562h.438v-.219h-.218c-.146.021-.22.094-.22.219zm4.532 0h.219v.344c-.146 0-.219-.084-.219-.25v-.094zm-.656.219h.094c.145.083.26.125.343.125v.093c0 .146-.073.22-.219.22l-.218-.313v-.125zm-11.656.437h.218v.125l-.093.219h.218v-.219h.125c.146.021.219.094.219.219v.313l-.781.25c-.146 0-.219-.084-.219-.25v-.22c.208 0 .313-.145.313-.437zm-1.22.657h.344c0 .166-.072.25-.218.25h-.125v-.25zm-.437.687c.084 0 .125.031.125.094l.532-.094h.124c.146.02.22.094.22.219v.093c0 .146-.074.22-.22.22h-.78c0-.105-.074-.25-.22-.438l.22-.094zm-8.875 12.844c-.208.333-.312.593-.312.781h.093c.188-.146.344-.219.47-.219v-.343c0-.146-.084-.22-.25-.22zM43.5 35.25c0 .083-.042.198-.125.344v.125h.125c0-.084.031-.198.094-.344v-.125H43.5zm8.094 1.219l.093.218c0 .167-.072.25-.218.25l-.094-.25c.02-.145.094-.218.219-.218zm0 1.687c.146.021.218.094.218.219l-.343.219c-.146 0-.219-.073-.219-.219l.344-.219zm-1.782 1.75c.021.146.094.219.22.219l.093-.219v-.218h-.094c-.146.02-.218.093-.218.218zm-.343.219c0 .27-.26.604-.782 1 .084.146.126.26.126.344.333-.23.593-.604.78-1.125h.094c0-.146-.072-.219-.218-.219zm-1.313 2.125l-.125.219h.344c0-.146-.073-.219-.219-.219zm-1 .781c.021.146.094.219.219.219.146-.083.25-.125.313-.125v-.094h-.532zm-.125.532h.125c.146 0 .219-.073.219-.22h-.125c-.146.022-.219.094-.219.22zm1.563-.094h.093v.093c0 .146-.072.22-.218.22h-.094v-.094c.02-.146.094-.22.219-.22zm1.781 1h.219l-.125.531h-.219l.125-.531zm-.344.531l.094.219c0 .166-.073.25-.219.25l-.093-.25c.02-.146.093-.219.218-.219zm.438 0h.125c.146.042.218.115.218.219l-.218.125-.125-.219V45zm-5.094.563h.125c.146 0 .219-.073.219-.22h-.125c-.146.022-.219.094-.219.22zM48.156 48l.094.219-.219.125-.093-.219.218-.125zm-3.656.344c0 .083-.042.187-.125.312h.344v-.312H44.5zm2.75.093l.125.22-.219.124-.125-.218.219-.126zm-2.219.22c0 .166-.073.25-.218.25V49h.218l.125-.219v-.125h-.125zm-.531 1.687v.218h.313v-.218H44.5zm18.25-24.657h.125c.146 0 .594.094 1.344.282.166-.084.354-.125.562-.125l1.625 1.75c.396.875.74 2.583 1.031 5.125-.124.875-1.302 2.74-3.53 5.593-.417 0-1.199.49-2.344 1.47-.48.27-.97.656-1.47 1.156v.156h.282c0 .166-.583.458-1.75.875-1.646 1.291-2.917 1.979-3.813 2.062-.187-.104-.333-.156-.437-.156a1.097 1.097 0 01-.594.156v-.156l.157-.281h-.282c-.396.146-.593.479-.593 1 .25.979.979 1.468 2.187 1.468h1.469c1 0 2.76-.822 5.281-2.468.188.083.333.125.438.125.041-.313.291-.552.75-.719l3.062-2.219c.292 0 .73.198 1.313.594-.105.667-.438 1.208-1 1.625.187 0 .28.042.28.125 1.063-.583 1.75-.875 2.063-.875v.313a38.798 38.798 0 01-3.25 2.937h-.125v.281l.281-.156h.313c-.104.688-.406 1.031-.906 1.031v.282h.437v.156c-.875.75-1.312 1.187-1.312 1.312h.156c.188-.083.333-.125.438-.125l.156.282-.313.156-.281-.157c0 .459-1.219 1.344-3.656 2.657-1.209.479-2.584.718-4.125.718a9.63 9.63 0 01-3.969-1.906c-.77-.666-1.646-2.77-2.625-6.312v-1.032c.375-3.145 1.594-6.177 3.656-9.093 1.48-.834 2.604-1.907 3.375-3.219 1.959-1.48 2.938-2.313 2.938-2.5 0-.25.979-.688 2.937-1.313v-.156c-.187 0-.281-.093-.281-.281v-.438zm.563 5.875c-.063.167-1.136.844-3.22 2.032-3.27 3.208-5.124 5.562-5.562 7.062.084.167.125.354.125.563.521-.104 1.26-.74 2.219-1.907.48 0 2.094-1.604 4.844-4.812.312-.333.948-1.219 1.906-2.656 0-.188-.104-.282-.313-.282zm2.343 12.157v.437c.271-.375.615-.562 1.031-.562v-.313c-.687.104-1.03.25-1.03.438zM64.5 46.375v.125h.281c.48-.25.73-.438.75-.563l-.312-.156c-.438.188-.677.386-.719.594zm1.75-.156l.156.281-.437.313h-.156v-.157c0-.146.145-.291.437-.437zm-2.938 2.062v.125c.667-.479 1.115-.718 1.344-.718v-.157h-.594c-.124 0-.374.25-.75.75zm-.718.438V49c.187-.104.333-.156.437-.156v-.438h-.156c-.188.042-.281.146-.281.313zm-1.188.593v.126h.438c.146 0 .291-.146.437-.438-.083 0-.125-.052-.125-.156-.5.125-.75.281-.75.468zm13.657-23.624c.541.375 1 1.385 1.374 3.03.021.313.105.47.25.47l-.124.562.124.594c-1.041.896-2.01 1.979-2.906 3.25-.479.937-.875 2.062-1.187 3.375 0 .166.583.552 1.75 1.156h.344c.208 0 .791-.27 1.75-.813.145.084.26.126.343.126.73-.23 1.125-.344 1.188-.344l-.125-.25 1.375-.938H79v-.093c.02-.167.094-.25.219-.25h.125c0 .083.041.197.125.343.916-.312 1.687-.77 2.312-1.375.709-.791 1.063-1.375 1.063-1.75l-.125-.25.25-.437c0-.084-.042-.125-.125-.125.083-.542.156-.896.219-1.063a.966.966 0 01-.094-.437c.146 0 .219-.084.219-.25-.084-.146-.126-.26-.126-.344l.25-.125h.094c1.084.917 1.625 2.698 1.625 5.344v.125c0 1.375-.614 2.968-1.844 4.781-.312.625-1.822 1.438-4.53 2.438.624 1.458 1.051 2.583 1.28 3.374-.083.146-.124.26-.124.344.041 0 .27.23.687.688 4.458-3.521 6.938-5.573 7.438-6.157.312-.062.624-.26.937-.593H89c-.375.708-.646 1.062-.813 1.062v.125h.594c0-.396.188-.708.563-.937h.125c.104 0 .219.114.344.343 0 .146-.115.22-.344.22 0 .187.156.697.469 1.53v.344c-.271 0-.626.386-1.063 1.157h-.094c0-.146-.083-.22-.25-.22l-.125.22.25.343c-.25.334-.562.532-.937.594-.396-.042-.594-.156-.594-.344h-.094v.094c.063.167.094.292.094.375-.063 0-.094.031-.094.094h.344v.125C84 48.406 82.062 50 81.562 50l-.25-.125h-.093V50h.219v.094c-.876.854-1.49 1.281-1.844 1.281l.094.25-.22.094c-.145-.125-.614-.24-1.406-.344 0-.313-.187-.469-.562-.469-.333 1.084-.646 1.625-.938 1.625a1.179 1.179 0 00-.468-.093c0 .312-.115.468-.344.468l-.25-.375.125-.218H75.5l-.813.812h-.093c0-.48.187-.98.562-1.5l-.094-.25v-.125c.209 0 .396-.188.563-.563v-.124l-.219-.344v-.125l.813-1.625c-.167 0-.25-.073-.25-.219l.812-1.281h.125l-.125-.25.125-1.375c0-.375-.344-.802-1.031-1.282h-.594l-3.25 1.844c-.208.354-.719.896-1.531 1.625h-.219v-.093A42.893 42.893 0 0172.25 45h-.094c-.687.25-1.198.667-1.531 1.25-.313 0-.542.198-.688.594h-.343c-.125.312-.365.51-.719.593l-.094-.25c1.709-2.104 2.709-3.26 3-3.468.167-.396.323-.594.469-.594V43h-.094c-.812.625-1.323.938-1.531.938v-.344h.25v-.125l-.25-.344V43c.313-.25.469-.48.469-.688-.542.209-.813.407-.813.594h-.687v.219c.229 0 .344.115.344.344h.218v-.219h.25v.344c0 .104-.114.218-.344.343l-.468-.343c0 .229-.156.343-.469.343.02.167.094.25.219.25l-.094.22v.218l.219-.094h.125v.344l.219-.125h.343v.344h-.344L69 45l-.125.219v.125l.25.343v.344H69c-.146 0-.219-.073-.219-.218l-.812.093h-.25v.25h-.344v-.125c0-.146.115-.218.344-.218v-.376c0-.145-.073-.218-.219-.218 0 .666-.354 1.052-1.063 1.156 0 .23-.072.344-.218.344l.094.25c-1.146 1.625-1.959 2.937-2.438 3.937l-.219-.093h-.343v.093h.468c-.166.792-.323 1.188-.468 1.188-.292-.563-.49-.844-.594-.844 0 .125-.115.25-.344.375V51.5c1.125-2.75 2.563-5.188 4.313-7.313 0-.124.27-.406.812-.843h.094v.25h.25c0-.167.5-.75 1.5-1.75h.25v.25h.219c0-.209.083-.407.25-.594-.084 0-.126-.042-.126-.125h.126l.218.125c.417-.542.73-.813.938-.813l.094-.468c0-.146-.271-.688-.813-1.625l-.438-2.219c0-2.896.459-4.948 1.376-6.156 0-.334.156-.563.468-.688l-.125-.593c1.104-1.646 2.198-2.73 3.281-3.25zm-3.376 15.937c0 .23-.083.344-.25.344l-.218-.125c0 .083-.042.198-.125.343l.219.126c.395-.042.593-.271.593-.688h-.219zm17.188.344c0 .083-.031.125-.094.125.063.229.136.343.219.343l.594-.124c0 .083.031.124.094.124v-.468a.928.928 0 00-.47.125c-.145-.084-.26-.125-.343-.125zm-.688.125v.218h.126c.145 0 .218-.072.218-.218h-.344zM69.126 43.25v.219h-.719l.25.343v.126c0 .166-.083.25-.25.25v-.376h-.094v.376c.063 0 .094.03.094.093-.291.125-.437.24-.437.344v.125l.562-.125c.021.167.104.25.25.25.146 0 .219-.083.219-.25v-.094l-.219-.343c.209-.396.438-.594.688-.594v-.344h-.344zm-1.875.563v.124h.25v-.343c-.167.02-.25.093-.25.218zm-.219.25v.343c.146 0 .219-.073.219-.218v-.126h-.219zm2.781 0h.594c.146.02.219.093.219.218 0 .167-.073.25-.219.25-.083-.166-.125-.281-.125-.343l-.219.093h-.25v-.218zm15.594 1.03v.25h.688v-.25c-.23 0-.344-.03-.344-.093a.948.948 0 01-.344.094zm-16.75 1.157l.125.25v.125c-.166.188-.25.344-.25.469h-.344c.209-.563.365-.844.47-.844zm-2.219 1.531h.126c-.209.375-.365.563-.47.563h-.218v-.094c0-.104.188-.26.563-.469zm40.438-23.593c.271.27.771.458 1.5.562 0-.104.052-.156.156-.156 0 .208.459.854 1.375 1.937.271.542.448 1.23.532 2.063-.313 3.229-.771 5.229-1.376 6h-.406c0 .25-.135.531-.406.843 0 .188.458.959 1.375 2.313l1.094 3.844v1.656c0 .813-.917 2.73-2.75 5.75l-1.625 1.656h-.156v-.437c-.417.291-.688.437-.813.437v.25h.406c-.729.73-1.323 1.094-1.781 1.094h-.531c-1.459 0-2.875-.677-4.25-2.031-1.375 1.083-2.292 1.677-2.75 1.781v-.281c.27 0 .541-.188.812-.563-.187 0-.281-.083-.281-.25 1.188 0 1.781-.416 1.781-1.25l-.406-.281h-.25c-.167.563-1.448 1.48-3.844 2.75-1.166 0-2.812-.635-4.937-1.906-.917-.875-1.375-2.115-1.375-3.719.583-4.458 2.458-8.938 5.625-13.438 2.604-3.208 4.291-4.895 5.062-5.062-1.291 1.48-2.156 2.438-2.594 2.875v.156h.126c1.791-1.916 3.302-3.24 4.531-3.968.187.02.281.104.281.25-.917.708-1.375 1.166-1.375 1.375l.281-.125h.25v.125c-.312.583-.625 1.041-.937 1.375-.063.437-.344.802-.844 1.093-.25.73-.656 1.094-1.219 1.094v.156l.125.657c-.541.25-.812.437-.812.562v.125l.281-.125.25.125c0-.27.375-.635 1.125-1.094 0-.25.542-.843 1.625-1.781h.156c-1.416 1.5-2.24 2.51-2.469 3.031v.125l2.032-2.062h.156V32c-.813.542-1.313 1.23-1.5 2.063h-.563c0 .187.136.28.407.28l.562-.28c.146.083.323.124.531.124 0-.145.188-.322.563-.53 0 .083.042.124.125.124 0-.354.417-.854 1.25-1.5h.125v.125l-1.094 1.375v.407l.281-.126h.126c.083 0 .124.042.124.126.25-.146.896-.282 1.938-.407 1.833-5.229 2.75-8.198 2.75-8.906h.25v.813h.156c.271 0 .677-.5 1.219-1.5zm-6.437 6.593v.407c0 .187-.094.28-.282.28l-.125-.28c0-.125.136-.26.407-.407zM94.688 32v.406c.145 0 .322-.177.53-.531v-.156c-.208.187-.385.281-.53.281zm1.218 2.188c0 .187-.135.28-.406.28v.407h.156l.406-.281h.407v.156c-.084.167-.125.302-.125.406.416-.166.635-.354.656-.562v-.25l-.25.125c-.167 0-.448-.094-.844-.282zm-.531 5.78v-.156l.125-.687h-.125c-.167.02-.438.438-.813 1.25v.531c.438-.625.709-.937.813-.937v.125c-.375.979-.74 1.666-1.094 2.062v.125h-.156l-.25-.125c-.292.917-.438 1.51-.438 1.782.188-.105.334-.157.438-.157v.157c-.75 2.187-1.302 3.552-1.656 4.093v.157h.812c2.292-1.855 3.844-3.594 4.656-5.22.771-1.208 1.782-3.03 3.032-5.468l-.281-.156h-1.376v-.282l.969-.25v-.156c0-.229-.187-.364-.562-.406-.167.104-.302.156-.406.156l-.126-.281c1.021-.292 1.844-.708 2.469-1.25-.083 0-.448-.042-1.094-.125-1.124 0-2.135.917-3.03 2.75-.188 0-.824.823-1.907 2.469zm-1.25-3.312v.282h.438c0-.188-.094-.282-.282-.282h-.156zm1.375.688l.281.156v-.438c-.187.042-.281.136-.281.282zm.406.562v.282c.209 0 .354-.23.438-.688-.146 0-.292.135-.438.406zm7.813 3.157v.406h.156a22.473 22.473 0 001.5-3.157c.083 0 .125-.041.125-.124v-.282c-.479.646-1.073 1.698-1.781 3.157zm2.75-2.47c-.604.688-.927 1.46-.969 2.313.104.188.156.323.156.407-.687.833-1.239 1.979-1.656 3.437-.875 1.375-1.604 2.063-2.188 2.063-.458.458-.687.864-.687 1.218v.157c.187 0 .458.177.813.53h.406c1.354 0 2.823-1.78 4.406-5.343.354-1.25.531-2.115.531-2.594V40.5c0-1.27-.271-1.906-.812-1.906zM93.875 40.5v.563H94c0-.084.042-.365.125-.844-.167.041-.25.135-.25.281zm-.563.813v.156c.021.187.115.281.282.281v-.156c0-.188-.094-.282-.281-.282zm-.812.28l-.156.688c.166 0 .302-.229.406-.687h-.25zm.531 0l-.125.563c.188 0 .281-.135.281-.406v-.156h-.156zm-.937.97c0 .458-.094.687-.281.687v.688c.187 0 .364-.459.53-1.376h-.25zm.656.124l-.125.688c.083.167.125.354.125.563h.156c.021-.459.156-.688.406-.688-.145-.375-.28-.563-.406-.563h-.156zm8.938 1.938c0 .083-.053.219-.157.406h.157c.166 0 .25-.093.25-.281v-.125h-.25zm-.282.531c0 .146-.229.51-.687 1.094h.125c.146 0 .375-.313.687-.938v-.156h-.125zM95.5 52h.281v.281h-.562c.041-.187.135-.281.281-.281zm-1.781.156h.969v.125c0 .188-.094.282-.282.282l-.687-.126v-.28zm21.719-29.281c.124.02.187.083.187.188-.375.187-.802.927-1.281 2.218v.094h.187c0-.333.365-.938 1.094-1.813a.894.894 0 01.406-.093c.271.104.407.208.407.312v.188c0 .062-.032.093-.094.093 0 .105.166.313.5.625v.094l-.094.188c.229 0 .562.646 1 1.937.146.021.219.084.219.188l-.219.406c.146.02.219.094.219.219V28c-.813.98-1.25 1.75-1.313 2.313.063 0 .094.041.094.125l.188-.125.406.125c.625 0 1.698-.344 3.218-1.032 0 .084.042.125.126.125.854-.52 2.531-1.333 5.031-2.437a.9.9 0 00.406.093c0-.104.437-.302 1.313-.593.312-.25.812-.417 1.5-.5 0 .062.031.093.093.093.021-.125.094-.187.219-.187h.312v.094c0 .125-.104.187-.312.187.021.146.083.219.188.219a.891.891 0 01.406-.094l.406.594c-.125.02-.188.083-.188.188l.688.812v.094h-.188v.218c.188 0 .282.063.282.188-.146.146-.271.219-.375.219l.687.593-.187.313c.083 0 .177.094.281.281h-.094c.146.23.219.407.219.532-.146.02-.219.083-.219.187l.5.313v.187c-.187 0-.281.073-.281.219.333 0 .5.062.5.187 0 .146-.073.219-.219.219l.094.188c-3.188 1.75-5.667 4.468-7.438 8.156-2.333 3.625-3.645 6.614-3.937 8.968v.094l.094.219c.5-.23 1.104-.604 1.812-1.125 0-.188.167-.313.5-.375.167-.438.407-.677.719-.719h.312c.021-.333.115-.5.282-.5h.125v.094l-.125.219h.218c0-.354.136-.532.407-.532v-.187l-.125-.219.406-.187c.146.062.25.093.312.093.459-1.062 1-1.593 1.626-1.593l-.126-.219c.355-.333.698-.77 1.032-1.313.354 0 .75-.395 1.187-1.187 0-.083.042-.125.125-.125l.188.125c0-.354.239-.625.718-.813V40.5h.094c.125.02.188.094.188.219l-.188.281v.406c.209 0 .313.073.313.219 0 .125-.073.188-.219.188v-.188h-.312c-.396.25-.626.48-.688.688v.093h.094l.594-.5c.145.021.218.094.218.219 0 .27-.468.875-1.406 1.813-.604 1-1.479 2.104-2.625 3.312-.271.354-.51.594-.719.719 0 .208-.135.406-.406.593 0-.062-.031-.093-.094-.093L124 49.687l-.5.188v.188h.094c.041 0 .479-.26 1.312-.782H125v.094c0 .104-.396.438-1.188 1l-.312-.188h-.094c-.146.021-.218.084-.218.188.27 0 .406.073.406.219v.093a2.72 2.72 0 01-.406.094l.124.219v.094c0 .125-.072.187-.218.187H123l-.219-.093c-.708.541-1.343.812-1.906.812v-.219h-.406c0 .209-.063.313-.188.313-.375-.334-.843-.573-1.406-.719-.146-.208-.615-.469-1.406-.781v-.125a.724.724 0 00.093-.282c-.312-.166-.75-.874-1.312-2.124l.094-.5a.89.89 0 01-.094-.407h.094l-.094-.187v-.625l.188-.313-.188-.281v-.719a.89.89 0 01.094-.406c0-.063-.032-.094-.094-.094.083-.604.219-.906.406-.906 0 .063.032.094.094.094l.094-.188v-.093l-.188.093c-.146 0-.218-.073-.218-.218l.312-.188c.021.125.083.188.188.188.75-2.521 1.624-4.428 2.624-5.72 0-.208.24-.687.719-1.437l-.5.125c-.208-.083-.312-.156-.312-.218-.479.062-.719.27-.719.624h-.094l-.187-.124-.094.218v.282h.094v-.188h.187l-.094.5h-.187v-.188h-.125c-.375.417-.677.948-.906 1.594h-.188l.094-.5v-.187h-.188v.187h-.218c.146-.5.218-.802.218-.906l-.124-.688a.72.72 0 00.124-.406h-.218c0 .396-.271 1-.813 1.813-.083-.334-.177-.5-.281-.5-.25.666-.521 1-.812 1v.093h.187c-.187.542-.281.876-.281 1h-.125l-.281-.187h-.094c0 .333-.073.5-.219.5-.104 0-.208-.104-.313-.313.167-.124.303-.187.407-.187v-.094h-.5c0 .188-.031.282-.094.282l.094.218c0 .125-.094.188-.281.188v.625c0 .083-.136.177-.407.281l.094.5v.313h-.313v-.407h-.093c0 .334.031.5.093.5h.094a2.48 2.48 0 00-.281.719c.063.125.094.23.094.313-.146.02-.219.083-.219.187l-.188-.094-.312.188h-.188v-.188l.188-.312v-.188h-.188l-.093.5v.407h-.125c-.125 0-.188-.073-.188-.22v-.28c.25-.667.448-1.01.594-1.032v.5l.312-.187a.742.742 0 01-.093-.313v-.281c-.209 0-.313-.073-.313-.219.229-.146.532-1.052.906-2.718l.313-.313.187.125.126-.219v-.187h-.313c0-.292.365-1.542 1.094-3.75.083-.334.187-.5.312-.5l-.093-.188c.124-.27.187-.51.187-.718 0-.396-.396-1.532-1.187-3.407 0-2.979.666-5.198 2-6.656zm12.406 3.906h.094c.124 0 .187-.062.187-.187h-.094c-.125.02-.187.083-.187.187zm-.813.313h.094c.146 0 .219-.063.219-.188h-.125c-.125.021-.188.084-.188.188zm-.719.218h.126l.5-.125v-.093h-.407c-.146.02-.219.093-.219.218zm-2.624 3.5v.22h.124c.126 0 .188-.074.188-.22h-.312zm2.75.72l-.126.218v.094h.313v-.094c0-.146-.063-.219-.187-.219zm-.407.218l-.125.188v.093h.125c.125 0 .188-.062.188-.187l-.188-.094zm-6.156 1.281h.187c.146 0 .219-.062.219-.187h-.219c-.124.02-.187.083-.187.187zm-.906 0v.125h.687l.125-.218h-.125c-.25.062-.479.093-.687.093zm1.812 1.313c.021.146.084.218.188.218l.125-.218v-.094c-.146.063-.25.094-.313.094zm.907 0v.218H122v-.218h-.312zm-2.532.218v.188h.313v-.188h-.313zm.625 3.407v.125h.188c.187-.48.625-1.292 1.312-2.438v-.187h-.093c-.688 1-1.157 1.833-1.407 2.5zm-.312-2.188v.094l.5.094h.5v-.188h-1zm-3.719.375c0 .084-.042.188-.125.313h.219c0-.063.031-.167.094-.313h-.188zm-1.938.125v.282c.146 0 .219-.063.219-.188v-.094h-.219zm7.782.5c.354 0 .656.032.906.094v-.094a.745.745 0 01-.094-.312c-.541.062-.812.166-.812.312zm-6.469.813a.583.583 0 01.125.375h.094v-.375h-.219zm4.031 1.593v.094h.125c.25-.541.375-.843.375-.906-.333.125-.5.396-.5.813zm1.125-.5c.021.146.084.22.188.22l.093-.22h-.281zm-6.25.313v.188h.313c.125 0 .187-.063.187-.188h-.5zm17.125.5l.094.188-.188.124-.093-.218.187-.094zm-10.875.188v.124a.712.712 0 01.094.282h-.094a.73.73 0 01.094.312h.187l-.093-.718h-.188zm10.375.312c.125.02.188.083.188.188 0 .145-.063.218-.188.218h-.187v-.218c.021-.126.083-.188.187-.188zm-17.75.5v.313c.146 0 .219-.073.219-.22l-.219-.093zm.906-.094h.126c.083 0 .177.104.281.313 0 .083-.094.177-.281.281h-.126v-.594zm6.376 2v.313h.187v-.094c0-.146-.063-.219-.187-.219zm-1.532.719l-.094.188h.313c0-.126-.073-.188-.219-.188zm-6.437.406c0 .063.031.094.093.094-.062.104-.093.27-.093.5h-.094l-.219-.094c0 .125-.062.188-.187.188-.084-.125-.125-.219-.125-.282.083-.27.291-.406.625-.406zm16.031 2l.094.219v.094h-.094c-.146 0-.219-.063-.219-.188l.219-.125zm-.906 1.032h.187c-.562.708-.896 1.072-1 1.093h-.093c.5-.729.802-1.093.906-1.093zm-2.032 2.218l.094.188-.187.093-.094-.187.187-.094zm20.094-44.218h.094c0 .25.521.802 1.562 1.656 0 .354-.302 2.052-.906 5.093-.812 3.084-1.218 4.75-1.218 5v.094h.781c.146.042.219.125.219.25l.562-.125h.438l.437.344a.93.93 0 00.469-.125l.218.125c.209-.083.313-.156.313-.219.167 0 1.646.146 4.437.438a7.89 7.89 0 01.657-.125c.854.083 1.343.156 1.469.218l.218-.093a.97.97 0 00.438.093c.062 0 .094-.03.094-.093l1.343.218c.021-.145.094-.218.219-.218.896.041 1.344.146 1.344.312l.75-.093c.521.02.781.093.781.218.25-.146.479-.218.687-.218h.219l.313.218.562-.125c.292.063.438.136.438.219l.218-.094c.521.063.928.094 1.219.094l.219-.094c.458.104.688.219.688.344-.355.104-1.021.208-2 .313 0-.146-.073-.22-.219-.22h-.125l-.438.438h-.562v-.437l-.313.218h-.469c-.062 0-.093-.03-.093-.093l-.219.093a2.368 2.368 0 00-.781-.312c-.188.583-.479.875-.875.875v-.344c0-.146.104-.218.312-.218v-.438h-.312c0 .23-.073.344-.219.344-.083 0-.125-.042-.125-.125-.125 0-.385.187-.781.562 0-.25-.188-.396-.563-.437l-.218.093h-.532l-.344-.218c-.124 0-.343.073-.656.218l-.218-.093h-.126v.093c.23 0 .344.146.344.438-.375.208-.562.365-.562.469.083 0 .125.031.125.093l-.25.125c-.396 0-.802-.156-1.219-.468 0 .312-.073.468-.219.468h-.219c-.145 0-.218-.072-.218-.218v-.125l.344-.438v-.125c-.146 0-.219-.031-.219-.093 0-.23.177-.344.531-.344v-.219h-.094c-.354 0-.729.115-1.125.344l.125.218v.094h-.218l.218.344c-.291.375-.437.594-.437.656l-1-.312-.219.093c-.25 0-.438-.26-.562-.78l-.782.124c-.146 0-.406-.073-.781-.218l-.094.218c.146.063.25.094.313.094v.125c0 .104-.104.219-.313.344-.25-.167-.469-.25-.656-.25 0 .166-.083.25-.25.25h-.969l-.344-.25h-.874c-.167 0-.323-.032-.469-.094-.146.063-.25.094-.313.094v.687h.313v.219c-.667.104-1 .438-1 1h.25v.094l-.25.343c.083 0 .125.032.125.094-.396 0-.875 1.26-1.438 3.782l-2.218 6.093c-.188.75-.376 1.23-.563 1.438.083.146.125.26.125.343-.146.063-.625 1.47-1.438 4.22-1.562 4.166-2.343 6.676-2.343 7.53-.209.521-.313.855-.313 1h.219c.875-1.479 1.313-2.291 1.313-2.437.145.063.26.094.343.094.292-.25.438-.51.438-.782.146 0 .771-.77 1.875-2.312 1.333-1.688 2.114-2.542 2.344-2.563h.093l-.093-.218.656-.532v.22c-.5.874-.865 1.312-1.094 1.312l.094.218c-.146.292-.219.553-.219.782l.875-.657c.167.23.25.448.25.657-.167 0-.656.52-1.469 1.562-.208 0-.312.073-.312.219l.219.094c-.605.916-1.198 1.583-1.782 2v.125c.084.146.125.25.125.312-.312 0-.5.26-.562.782-.25.145-.469.218-.657.218v.688h-.343v-.125l.125-.219h-.125l-.125.219c.125.666.312 1 .562 1v.218c-.187 0-.375.073-.562.22h-.219c0-.147.115-.22.344-.22v-.343h-.125c-.25.083-.656.573-1.219 1.468V48l.344-.219v.125l-.219.313v.218c.354 0 .719-.25 1.094-.75.083 0 .198-.041.344-.124l-.094-.22c.166-.437.385-.656.656-.656l-.125-.25v-.093c.271 0 .792-.552 1.563-1.657 0-.208.333-.583 1-1.124 0-.209.072-.313.218-.313l.094.219c-.104.312-.354.604-.75.875l-1.219 1.781v.313h-.219l-.25-.094c0 .146-.031.218-.093.218l.093.22V47h-.093l-.219-.094-.125.219c.083.146.125.25.125.313-.146.02-.854.833-2.125 2.437-.063.125-.094.313-.094.563.063 0 .094.041.094.124.146-.083.26-.124.344-.124l-.094-.563c.063 0 .167.156.313.469.145-.084.26-.125.343-.125 0 .083.031.125.094.125l.125-.219c-.104-.02-.25-.208-.438-.563h.094a.968.968 0 00.438.094c0-.146.114-.218.344-.218v-.22h-.219v-.093c.021-.146.093-.219.219-.219.374.167.562.532.562 1.094-.167 0-.833.667-2 2h.219v.313a.771.771 0 00-.438.124c-.812 0-1.843-.593-3.093-1.78-.667-.522-1.073-.782-1.219-.782-.667-.813-1.115-1.292-1.344-1.438a.947.947 0 01.344-.093v-.125c-.604-.354-.907-.719-.907-1.094V46c0-.063.042-.094.126-.094 0-.083-.042-.125-.126-.125 0-.104.073-.51.219-1.218 0-.063-.031-.094-.093-.094.104-1.459.291-2.386.562-2.782l-.125-.218 1-3.313c0-.125.115-.24.344-.343l-.125-.22c.625-1.687 1-2.54 1.125-2.562l-.125-.218v-.22c.25-.437.614-1.614 1.094-3.53.52-1.23 1.114-2.938 1.781-5.125.354-.375.729-1.292 1.125-2.75l.875-2.125c0-.167-.188-.271-.563-.313 0 .104-.104.208-.312.313-.813 0-1.219-.22-1.219-.657l-.219-.093h-.125v.093h.219v.344c-1.292 0-4.021-1.042-8.188-3.125-1.562-.938-2.343-1.594-2.343-1.969 0-.125-.104-.312-.313-.562v-1l-.125-.656.125-.22c-.083-.52-.125-.926-.125-1.218v-.219c.271-.5.563-.802.875-.906.771 0 1.74.406 2.906 1.219 1.521.666 3.917 1.552 7.188 2.656l.219-.094c.812.167 1.521.386 2.125.656l.218-.124.75.468h.25c.438-.646.73-1.719.876-3.219 0-.395.187-.729.562-1 .146.25.219.47.219.657 0 .083-.073.531-.219 1.344.188-.167.552-1.5 1.094-4 .271-.188.489-.855.656-2l.25-.094c0 .062.031.093.094.093.291-.833.51-1.343.656-1.53l-.094-.25c0-.126.261-.345.782-.657.291-.292.697-.438 1.218-.438zm4.969 13.625c.146 0 .219.114.219.343.104 0 .333-.218.687-.656l-.562-.125c-.104 0-.219.146-.344.438zm15.844-.22H167v.22h-.219l-.562-.094v-.125zm-10.969.22h.125c.521.145.813.218.875.218h.125l.781-.093.094.218-.094.219-.781-.125h-.437v.219c.645.062.968.177.968.343v.125l-1.094.094h-.218c-.104 0-.219-.104-.344-.312 0-.167.188-.25.562-.25 0-.292-.187-.438-.562-.438v-.218zm8.438 0h.218c.146.02.219.093.219.218v.438c0 .166-.073.25-.219.25-.104 0-.218-.115-.344-.344l.126-.563zm-9.969.562h.437v-.219h-.218c-.146.021-.219.094-.219.219zm4.531 0h.219v.344c-.146 0-.219-.084-.219-.25v-.094zm-.656.219h.094c.145.083.26.125.343.125v.093c0 .146-.073.22-.219.22l-.218-.313v-.125zm-11.656.437h.218v.125l-.094.219h.219v-.219h.125c.146.021.219.094.219.219v.313l-.781.25c-.146 0-.219-.084-.219-.25v-.22c.208 0 .313-.145.313-.437zm-1.219.657h.343c0 .166-.072.25-.218.25h-.125v-.25zm-.438.687c.084 0 .125.031.125.094l.532-.094h.124c.146.02.219.094.219.219v.093c0 .146-.073.22-.219.22h-.781c0-.105-.073-.25-.219-.438l.219-.094zm-8.875 12.844c-.208.333-.312.593-.312.781h.094c.187-.146.343-.219.468-.219v-.343c0-.146-.083-.22-.25-.22zm-.531 1.656c0 .083-.042.198-.125.344v.125h.125a.94.94 0 01.094-.344v-.125h-.094zm8.094 1.219l.093.218c0 .167-.072.25-.218.25l-.094-.25c.021-.145.094-.218.219-.218zm0 1.687c.146.021.219.094.219.219l-.344.219c-.146 0-.219-.073-.219-.219l.344-.219zm-1.781 1.75c.02.146.093.219.218.219l.094-.219v-.218h-.094c-.146.02-.218.093-.218.218zm-.344.219c0 .27-.261.604-.782 1 .084.146.126.26.126.344.333-.23.593-.604.781-1.125h.093c0-.146-.072-.219-.218-.219zm-1.313 2.125l-.125.219h.344c0-.146-.073-.219-.219-.219zm-1 .781c.021.146.094.219.219.219.146-.083.25-.125.312-.125v-.094h-.531zm-.125.532h.125c.146 0 .219-.073.219-.22h-.125c-.146.022-.219.094-.219.22zm1.563-.094h.093v.093c0 .146-.072.22-.218.22h-.094v-.094c.021-.146.094-.22.219-.22zm1.781 1h.219l-.125.531h-.219l.125-.531zm-.344.531l.094.219c0 .166-.073.25-.219.25l-.093-.25c.02-.146.093-.219.218-.219zm.438 0h.125c.146.042.219.115.219.219l-.219.125-.125-.219V45zm-5.094.563h.125c.146 0 .219-.073.219-.22h-.125c-.146.022-.219.094-.219.22zM139.531 48l.094.219-.219.125-.094-.219.219-.125zm-3.656.344c0 .083-.042.187-.125.312h.344v-.312h-.219zm2.75.093l.125.22-.219.124-.125-.218.219-.126zm-2.219.22c0 .166-.073.25-.218.25V49h.218l.125-.219v-.125h-.125zm-.531 1.687v.218h.313v-.218h-.313z" fill="#E44982"/></g><defs><filter id="filter0_d" x=".719" y=".406" width="170.281" height="56.719" filterUnits="userSpaceOnUse" color-interpolation-filters="sRGB"><feFlood flood-opacity="0" result="BackgroundImageFix"/><feColorMatrix in="SourceAlpha" values="0 0 0 0 0 0 0 0 0 0 0 0 0 0 0 0 0 0 127 0" result="hardAlpha"/><feOffset/><feGaussianBlur stdDeviation="2"/><feComposite in2="hardAlpha" operator="out"/><feColorMatrix values="0 0 0 0 0.894118 0 0 0 0 0.286275 0 0 0 0 0.509804 0 0 0 0.7 0"/><feBlend in2="BackgroundImageFix" result="effect1_dropShadow"/><feBlend in="SourceGraphic" in2="effect1_dropShadow" result="shape"/></filter></defs></svg>