<svg width="20" height="20" fill="none" xmlns="http://www.w3.org/2000/svg"><path fill-rule="evenodd" clip-rule="evenodd" d="M10 20c5.523 0 10-4.477 10-10S15.523 0 10 0 0 4.477 0 10c0 2.337.801 4.486 2.144 6.188l-1.3 3.297 3.642-1.141A9.954 9.954 0 0010 20zM6.066 5.129c.257-.172.88-.412 1.311 0 .075.093 1.171 1.179 1.71 1.71.187.327.356 1.09-.469 1.522l-.048.02c-.277.115-1.086.45-.537 1.525.585 1.148 1.545 1.944 2.037 2.155.492.21 1.335.539 1.78-.258.047-.203.23-.637.586-.75.445-.14.913 0 1.264.376a98.868 98.868 0 001.405 1.428c.07.07.539.633 0 1.382l-1.288 1.264c-.46.305-1.98.478-4.38-1.264C6.44 12.06 5.036 9.32 4.872 8.665a22.153 22.153 0 00-.044-.173c-.17-.654-.406-1.57.044-2.192a5.712 5.712 0 011.195-1.171z" fill="#242428"/></svg>