<svg width="120" height="100" fill="none" xmlns="http://www.w3.org/2000/svg"><path fill-rule="evenodd" clip-rule="evenodd" d="M76.51 78.35l6.874-.069V61.572l-6.766 11.207-.108 5.572z" fill="#878E40"/><path fill-rule="evenodd" clip-rule="evenodd" d="M75.393 55.129c-1.124 9.738-6.915 17.918-17.916 16.033-4.979-.854-8.041-3.861-9.95-7.225-2.301-4.055-1.861-10.034-1.774-15.267.37-22.206 32.896-21.761 29.64 6.459zm3.98-21.748c-6.46-9.108-21.993-11.081-30.84-1.933-1.2 1.241-1.64 2.141-2.724 3.285-.377-6.627.923-27.318-.326-31.795l-8.694.01-.574 74.505 7.976.069.417-8.218c2.118 1.509 1.5 2.993 5.431 5.854 5.021 3.655 11.934 4.442 17.893 2.731 5.974-1.715 8.16-3.824 12.68-9.94 3.75-5.074 8.149-18.88-1.24-34.568z" fill="#E44982"/><path fill-rule="evenodd" clip-rule="evenodd" d="M.179 37.923l.024 4.664c9.21 1.882 7.025 8.712 7.06 20.702.028 9.662 4.211 14.102 13.905 14.193l.043-5.296c-8.417-.692-7.224-5.977-7.224-15.34 0-3.59.388-7.654-.779-10.977-1.468-4.184-3.125-3.683-5.798-5.79 7.128-3.256 6.578-7.42 6.577-16.296 0-7.633-1.393-14.772 7.224-15.418l-.006-5.375c-9.838.014-13.922 4.631-13.943 14.351C7.233 31.077 9.23 35.237.18 37.923zM98.831 8.324c.945 1.786 1.189.26 3.916 1.678 7.964 4.139-1.935 24.228 7.92 29.876l1.813 1.08c-7.141 3.717-6.441 7.236-6.441 16.318.001 7.95 1.596 14.923-7.083 15.584l-.088 5.341c9.921-.28 13.882-4.594 13.895-14.484.005-3.895-.377-10.29.173-13.833 1.088-7.004 5.858-5.214 6.886-7.208l-.03-4.162c-9.231-1.706-6.954-9.355-7.029-20.744-.065-9.683-4.296-13.857-13.861-14.132l-.07 4.686z" fill="#fff"/><path d="M24.572 96.852h-1.565V83.191h1.68v4.875c.708-.884 1.611-1.326 2.712-1.326.607 0 1.186.12 1.73.365s.989.592 1.342 1.034a5 5 0 01.823 1.606c.2.623.3 1.294.3 2.006 0 1.692-.42 3.002-1.257 3.925-.84.925-1.844 1.386-3.018 1.386-1.167 0-2.082-.486-2.747-1.456v1.246zM35.358 83.54a.952.952 0 110 1.904.952.952 0 010-1.904zm-10.805 8.289c0 1.183.162 2.038.483 2.566.528.862 1.24 1.295 2.14 1.295.735 0 1.368-.318 1.899-.954.534-.636.801-1.584.801-2.844 0-1.29-.254-2.241-.766-2.855-.512-.614-1.133-.922-1.857-.922-.735 0-1.368.318-1.899.954-.534.636-.801 1.555-.801 2.76zm9.933 5.024V86.95h1.68v9.902h-1.68zm8.732-1.497l.229 1.482c-.47.098-.894.149-1.263.149-.607 0-1.078-.096-1.414-.29-.335-.194-.57-.445-.707-.76-.136-.314-.203-.976-.203-1.984v-5.705h-1.24V86.95h1.24V84.5l1.679-1.008v3.457h1.679v1.297h-1.679v5.8c0 .48.029.79.089.926a.697.697 0 00.286.328c.134.079.324.12.572.12.185 0 .43-.022.732-.066zm9.26-1.708l1.736.229c-.27 1.008-.777 1.794-1.514 2.35-.738.556-1.68.836-2.827.836-1.444 0-2.589-.445-3.435-1.335-.846-.888-1.268-2.137-1.268-3.743 0-1.66.426-2.951 1.281-3.867.856-.92 1.965-1.377 3.33-1.377 1.32 0 2.397.448 3.234 1.348.836.9 1.256 2.166 1.256 3.797 0 .099-.003.248-.01.445h-7.374c.063 1.085.368 1.918.922 2.494.55.575 1.24.865 2.064.865.614 0 1.138-.163 1.57-.487.436-.325.78-.843 1.034-1.555zm-5.496-2.69h5.514c-.073-.834-.286-1.457-.633-1.873-.53-.646-1.224-.97-2.073-.97-.77 0-1.415.257-1.94.772-.521.516-.81 1.206-.868 2.07zm9.056 5.895l3.616-5.13-3.349-4.772h2.064l1.565 2.337c.289.439.518.795.68 1.075.283-.398.535-.757.76-1.078l1.648-2.334h2.05l-3.367 4.773 3.587 5.13H63.25L61.203 93.8l-.468-.735-2.646 3.787h-2.05zM66.903 85.69l.426-1.316c.986.346 1.699.645 2.147.9-.118-1.12-.181-1.892-.188-2.312h1.355a22.69 22.69 0 01-.216 2.302c.64-.32 1.37-.62 2.194-.89l.426 1.316c-.785.261-1.555.436-2.312.522.379.328.91.916 1.597 1.758l-1.113.793c-.36-.49-.786-1.158-1.275-2-.462.874-.865 1.541-1.212 2l-1.094-.793c.715-.887 1.23-1.472 1.54-1.758a34.745 34.745 0 01-2.275-.522zm15.41 9.922c-.623.531-1.224.903-1.8 1.123a5.15 5.15 0 01-1.854.327c-1.088 0-1.924-.263-2.51-.795-.584-.528-.877-1.205-.877-2.029a2.751 2.751 0 011.199-2.286c.36-.242.76-.426 1.209-.55.33-.086.83-.169 1.494-.251 1.355-.16 2.356-.353 2.996-.576.006-.229.01-.375.01-.436 0-.68-.16-1.16-.478-1.44-.43-.379-1.068-.566-1.914-.566-.792 0-1.377.14-1.752.416-.379.277-.656.767-.837 1.473l-1.64-.23c.149-.702.394-1.271.737-1.704.344-.432.84-.763 1.488-.998.646-.233 1.4-.35 2.252-.35.846 0 1.536.098 2.067.299.528.2.919.448 1.167.75s.423.684.525 1.145c.054.286.082.801.082 1.542v2.227c0 1.554.035 2.537.106 2.954.066.416.206.814.41 1.195h-1.756a3.73 3.73 0 01-.324-1.24zm-.134-3.72c-.61.247-1.526.457-2.747.629-.694.099-1.183.21-1.47.334a1.475 1.475 0 00-.66.54 1.42 1.42 0 00-.236.796c0 .442.168.814.509 1.11.34.295.836.445 1.488.445.645 0 1.22-.14 1.727-.423a2.6 2.6 0 001.11-1.151c.18-.379.27-.935.27-1.67l.01-.61zm5.107 4.96V86.95h1.507v1.516c.385-.702.741-1.166 1.068-1.39a1.858 1.858 0 011.079-.336c.566 0 1.141.178 1.727.531l-.599 1.549a2.458 2.458 0 00-1.22-.344c-.366 0-.694.111-.983.33-.29.22-.496.526-.62.917a6.478 6.478 0 00-.28 1.956v5.173h-1.68zm10.865-1.497l.23 1.482a6.311 6.311 0 01-1.263.149c-.608 0-1.078-.096-1.415-.29-.334-.194-.57-.445-.707-.76-.136-.314-.203-.976-.203-1.984v-5.705h-1.24V86.95h1.24V84.5l1.68-1.008v3.457h1.678v1.297h-1.679v5.8c0 .48.029.79.089.926a.698.698 0 00.286.328c.134.079.325.12.573.12.184 0 .43-.022.731-.066z" fill="#fff"/></svg>