<svg width="21" height="21" fill="none" xmlns="http://www.w3.org/2000/svg"><path fill-rule="evenodd" clip-rule="evenodd" d="M10.5 21C16.299 21 21 16.299 21 10.5S16.299 0 10.5 0 0 4.701 0 10.5c0 2.453.841 4.71 2.252 6.498L.885 20.459l3.825-1.198A10.452 10.452 0 0010.5 21zM6.369 5.385c.27-.18.924-.433 1.377 0 .079.099 1.23 1.238 1.795 1.795.197.345.374 1.146-.492 1.599A2.37 2.37 0 019 8.8c-.292.12-1.14.473-.565 1.602.615 1.205 1.623 2.04 2.14 2.262.516.221 1.401.566 1.869-.27.049-.214.24-.67.614-.787.468-.148.96 0 1.328.393.37.393 1.402 1.426 1.476 1.5.073.074.565.664 0 1.45l-1.353 1.329c-.483.32-2.08.501-4.598-1.328-3.148-2.287-4.623-5.164-4.795-5.853l-.047-.182c-.177-.686-.426-1.648.047-2.301a5.997 5.997 0 011.254-1.23z" fill="#fff"/></svg>